<?xml version="1.0" encoding="UTF-8"?>
<svg xmlns="http://www.w3.org/2000/svg" xmlns:xlink="http://www.w3.org/1999/xlink" id="Layer_1" x="0px" y="0px" viewBox="0 0 470.1 86.6" style="enable-background:new 0 0 470.1 86.6;" xml:space="preserve">
<style type="text/css">
	.st0{fill:#FFFFFF;}
	.st1{fill:#65B2E8;}
</style>
<title>Asset 6</title>
<path class="st0" d="M33.4,36.2H16.1l-2,12h20.3l-1.3,7.4H3.6l7.9-45h29.2l-1.3,7.5h-20l-2,10.7h17.3L33.4,36.2z"/>
<path class="st0" d="M74.1,55.7h-8.8L52.8,25.8l-5.2,30h-9l7.9-45h8.7l12.6,30.1L73,10.8h9L74.1,55.7z"/>
<path class="st0" d="M121.6,18.2h-13.4l-6.4,37.5h-9l6.4-37.5H86.1l1.3-7.5H123L121.6,18.2z"/>
<path class="st0" d="M150.2,36.2H133l-2.1,12.1h20.3l-1.3,7.4h-29.3l7.9-45h29.2l-1.3,7.5h-20.2l-1.9,10.6h17.3L150.2,36.2z"/>
<path class="st0" d="M174.7,39.2h-7.4l-2.9,16.5h-9l7.9-45h14.9c4.2-0.3,8.3,1,11.6,3.6c2.8,2.5,4.1,6.1,3.6,9.8  c-0.3,6-4.2,11.1-9.9,12.9l6.3,18.3v0.5H180L174.7,39.2z M168.7,31.7h6.7c2.1,0,4.2-0.6,5.9-1.9c1.5-1.3,2.6-3.1,2.8-5.1  c0.4-1.6,0-3.4-1-4.7c-1.1-1.2-2.8-1.9-4.4-1.8h-7.9L168.7,31.7z"/>
<path class="st0" d="M206.7,39.8l-2.8,15.9h-9l7.9-45h15.7c4.2-0.2,8.3,1.3,11.4,4.1c2.8,2.7,4.1,6.6,3.6,10.5  c-0.2,4.1-2.2,8-5.5,10.5c-3.7,2.8-8.2,4.2-12.8,4L206.7,39.8z M208,32.3h7.5c2.2,0.1,4.3-0.6,6.1-1.9c1.6-1.2,2.6-3.1,2.9-5.1  c0.4-1.8,0.1-3.7-1-5.2c-1.1-1.3-2.7-2.1-4.5-2h-8.6L208,32.3z"/>
<path class="st0" d="M254.1,39.2h-7.4l-2.9,16.5h-9.1l7.8-45h14.9c4.1-0.3,8.2,1,11.5,3.5c2.7,2.5,4.1,6.1,3.6,9.8  c-0.3,6-4.2,11.1-9.9,12.9l6.3,18.3v0.5h-9.6L254.1,39.2z M248,31.7h6.8c2.1,0,4.2-0.6,5.9-1.9c1.6-1.3,2.6-3.1,2.8-5.1  c0.4-1.6,0-3.3-0.9-4.7c-1.1-1.2-2.8-1.9-4.4-1.8h-7.9L248,31.7z"/>
<path class="st0" d="M284,55.7h-9l7.9-45h9.1L284,55.7z"/>
<path class="st0" d="M317.3,43.7c0.4-2.5-0.8-4.3-3.6-5.6l-6.1-2.4c-6.9-3.1-10.2-7.3-9.9-12.8c0.1-2.4,1-4.8,2.5-6.7  c1.7-2.1,3.9-3.7,6.4-4.6c2.8-1.1,5.8-1.7,8.8-1.6c3.9-0.1,7.6,1.3,10.5,3.9c2.7,2.6,4.1,6.3,4,10.1h-9c0.2-1.7-0.3-3.4-1.3-4.7  c-1.2-1.2-2.9-1.9-4.7-1.8c-1.8,0-3.7,0.4-5.2,1.4c-1.4,0.9-2.4,2.4-2.6,4c-0.4,2.3,1.1,4,4.5,5.2l4.1,1.5l2.4,1.1  c6.1,3,8.9,7.2,8.5,12.7c-0.1,2.5-1.1,4.9-2.6,6.9c-1.6,2-3.8,3.5-6.2,4.4c-2.7,1.1-5.7,1.6-8.6,1.5c-3,0-5.9-0.7-8.5-2  c-2.4-1.2-4.4-3.1-5.7-5.4c-1.2-2.3-1.8-4.9-1.7-7.4h9c-0.3,4.9,2.1,7.4,7.2,7.4c1.9,0.1,3.8-0.4,5.5-1.4  C316.1,46.5,317,45.2,317.3,43.7z"/>
<path class="st0" d="M360.3,36.2h-17.2L341,48.3h20.3l-1.3,7.4h-29.3l7.9-45h29.3l-1.3,7.5h-20.2l-1.9,10.6h17.3L360.3,36.2z"/>
<path class="st1" d="M393.7,44.4c0.5-3.9-1.6-6.7-6.2-8.5l-5.9-2.3l-1.9-0.8c-5.8-2.6-8.6-6.2-8.1-11.1c0.2-2.3,1.1-4.5,2.6-6.3  c1.6-1.9,3.6-3.3,5.9-4.2c2.5-1,5.2-1.5,7.9-1.4c2.5,0,4.9,0.7,7.1,1.8c2,1.1,3.6,2.8,4.7,4.8c1.1,2.1,1.5,4.5,1.2,6.8h-3.8  c0.4-2.7-0.4-5.3-2.1-7.4c-1.9-1.9-4.6-3-7.3-2.9c-3-0.1-5.9,0.7-8.4,2.3c-2.2,1.4-3.7,3.7-4,6.3c-0.3,2,0.4,4,1.9,5.5  c2.3,1.9,5,3.2,7.9,3.9c3.7,0.9,7.2,2.8,10,5.5c1.9,2.1,2.7,4.9,2.4,7.7c-0.2,2.4-1.1,4.6-2.6,6.4c-1.6,1.9-3.7,3.3-6,4.2  c-2.6,1-5.3,1.4-8.1,1.4c-2.7,0-5.4-0.6-7.9-1.8c-2.2-1-4-2.7-5.2-4.7c-1.2-2.1-1.7-4.6-1.4-7h3.7c-0.4,2.8,0.6,5.6,2.6,7.5  c2.3,2,5.2,3.1,8.2,2.9c3.1,0.2,6.1-0.7,8.7-2.4C392,49.4,393.4,47,393.7,44.4z"/>
<path class="st1" d="M430.5,44.4c0.5-3.9-1.6-6.7-6.2-8.5l-5.9-2.3l-1.9-0.8c-5.8-2.6-8.6-6.2-8.1-11.1c0.2-2.3,1.1-4.5,2.6-6.3  c1.6-1.9,3.7-3.3,6-4.2c2.5-1,5.2-1.5,7.9-1.4c2.5,0,4.9,0.7,7.1,1.8c2,1.1,3.6,2.8,4.7,4.8c1.1,2.1,1.5,4.5,1.2,6.8H434  c0.4-2.7-0.4-5.3-2.1-7.4c-1.9-1.9-4.6-3-7.3-2.9c-3-0.1-5.9,0.7-8.4,2.3c-2.2,1.4-3.7,3.7-4,6.3c-0.3,2,0.4,4,1.9,5.5  c2.3,1.9,5,3.2,7.9,3.9c3.7,0.9,7.2,2.8,10,5.5c1.9,2.1,2.7,4.9,2.4,7.7c-0.2,2.4-1.1,4.6-2.6,6.4c-1.6,1.9-3.7,3.3-6,4.2  c-2.6,1-5.3,1.4-8.1,1.4c-2.7,0-5.4-0.6-7.9-1.8c-4.5-2.1-7.1-6.8-6.6-11.7h3.8c-0.4,2.8,0.6,5.6,2.6,7.5c2.2,2,5.1,3,8.1,2.9  c3.1,0.2,6.1-0.7,8.7-2.4C428.7,49.4,430.1,47,430.5,44.4z"/>
<path class="st1" d="M444.8,52.5h21.6l-0.6,3.2h-25.4l7.9-45h3.8L444.8,52.5z"/>
<g>
	<path class="st0" d="M295.9,65.4h5c2.5,0,3.2,1.5,2.7,4c-0.3,1.5-1.3,3.9-4.5,3.9H297l-1.2,5.4H293L295.9,65.4z M297.4,71.2h1.5   c0.8,0,1.6-0.9,1.8-1.8c0.2-1.1,0.1-2-1.1-2h-1.4L297.4,71.2z"/>
	<path class="st0" d="M304.5,72c0.7-3.5,1.5-6.8,6-6.8c4.6,0,3.9,3.3,3.1,6.8c-0.7,3.5-1.5,6.8-6,6.8S303.8,75.5,304.5,72z    M310.9,72c0.7-3.4,0.8-4.9-0.7-4.9s-2.1,1.5-2.8,4.9c-0.7,3.4-0.8,4.9,0.7,4.9S310.1,75.4,310.9,72z"/>
	<path class="st0" d="M316.1,65.4h2.8l-0.3,9.3l0,0l4.1-9.3h3.3v9.3l0,0l3.6-9.3h2.7l-5.8,13.3h-3.1V69l0,0l-4.4,9.7h-3L316.1,65.4z   "/>
	<path class="st0" d="M330.8,78.7l2.8-13.3h7.2l-0.4,2h-4.5l-0.7,3.3h4.1l-0.4,2h-4.1l-0.8,3.9h4.6l-0.4,2L330.8,78.7L330.8,78.7z"/>
	<path class="st0" d="M342.6,78.7h-2.8l2.8-13.3h5.1c1.9,0,2.8,1.2,2.4,3.5c-0.4,1.7-1.3,3-3.2,3.2l0,0c0.6,0.1,2.4,0.2,1.8,2.6   c-0.2,0.8-0.7,3.3-0.5,3.9h-2.7c-0.2-0.8,0.1-1.7,0.3-2.6c0.3-1.6,0.8-2.9-1.4-2.9h-0.7L342.6,78.7z M344.3,71.1h1.2   c1.1,0,1.6-1.1,1.8-1.9c0.3-1.3-0.2-1.7-1-1.7H345L344.3,71.1z"/>
	<path class="st0" d="M350.1,78.7l2.8-13.3h7.2l-0.4,2h-4.5l-0.7,3.3h4.1l-0.4,2h-4.1l-0.8,3.9h4.6l-0.4,2L350.1,78.7L350.1,78.7z"/>
	<path class="st0" d="M362.2,65.4h4.6c3.6,0,3.8,2.4,2.9,6.6c-0.4,2-1.1,6.7-5.9,6.7h-4.5L362.2,65.4z M362.6,76.6h1.3   c1.7,0,2.3-1.3,3-4.6c0.5-2.4,1-4.6-0.9-4.6h-1.4L362.6,76.6z"/>
	<path class="st0" d="M374.6,78.7l2.8-13.3h4.9c2.1,0,3.7,0.6,3.1,3.4c-0.3,1.5-1.3,2.6-2.9,2.9l0,0c1.9,0.3,2.1,1.5,1.8,3.4   c-0.7,3.4-3.7,3.5-4.8,3.5L374.6,78.7L374.6,78.7z M377.8,76.6h1.5c0.6,0,1.9,0,2.3-1.9c0.3-1.2,0-1.9-1.4-1.9h-1.6L377.8,76.6z    M379.1,70.8h1.9c0.6,0,1.5-0.4,1.8-1.7c0.2-1-0.3-1.7-1.2-1.7h-1.7L379.1,70.8z"/>
	<path class="st0" d="M389.2,74.1l-1.6-8.7h3l0.8,5.6l3.3-5.6h2.8l-5.6,8.7l-1,4.6h-2.8L389.2,74.1z"/>
	<path class="st0" d="M403.6,78.9c-3.4,0-3.6-2-3-4.3h2.8c-0.3,1.3-0.4,2.3,1.1,2.3c0.9,0,1.5-0.6,1.7-1.5c0.5-2.4-5-2.5-4.2-6.5   c0.4-2.1,1.8-3.7,5.2-3.7c2.7,0,3.8,1.2,3,4h-2.7c0.2-1,0.3-2-0.9-2c-0.9,0-1.5,0.5-1.7,1.4c-0.5,2.5,5.1,2.3,4.2,6.5   C408.3,78.5,405.7,78.9,403.6,78.9z"/>
	<path class="st0" d="M410.3,78.7l2.8-13.3h7.2l-0.4,2h-4.5l-0.7,3.3h4.1l-0.4,2h-4.1l-0.8,3.9h4.6l-0.4,2L410.3,78.7L410.3,78.7z"/>
	<path class="st0" d="M420.7,72c0.7-3.5,1.5-6.8,6-6.8c2.8,0,3.6,1.6,2.9,4.4h-2.7c0.4-1.8,0.2-2.4-0.6-2.4c-1.6,0-2.1,1.5-2.8,4.9   c-0.7,3.4-0.8,4.9,0.7,4.9c1.3,0,1.6-1.7,1.8-2.7h2.7c-0.8,3.5-2.4,4.7-5,4.7C419.3,78.9,420,75.5,420.7,72z"/>
	<path class="st0" d="M440.3,65.4l-0.5,2.2h-3.1l-2.4,11h-2.8l2.4-11h-3.1l0.5-2.2H440.3z"/>
	<path class="st0" d="M438.8,78.7l2.8-13.3h2.8l-2.8,13.3H438.8z"/>
	<path class="st0" d="M451.9,69.5c0.3-1.2,0.3-2.3-1.2-2.3c-1.7,0-2.2,2.3-2.8,4.9c-0.9,4.1-0.6,4.9,0.9,4.9c0.5,0,1-0.1,1.4-0.3   l0.6-2.9h-1.5l0.4-2h4.3l-1.4,6.7c-0.8,0.1-2.7,0.4-3.8,0.4c-4.7,0-4.8-1.9-3.7-7c0.7-3.3,1.6-6.7,6.1-6.7c2.7,0,4.1,1.5,3.3,4.3   H451.9z"/>
	<path class="st0" d="M456.4,72c0.7-3.5,1.5-6.8,6-6.8c4.6,0,3.9,3.3,3.1,6.8c-0.7,3.5-1.5,6.8-6,6.8S455.7,75.5,456.4,72z    M462.7,72c0.7-3.4,0.8-4.9-0.7-4.9s-2.1,1.5-2.8,4.9c-0.7,3.4-0.8,4.9,0.7,4.9C461.5,76.9,462,75.4,462.7,72z"/>
</g>
</svg>