<?xml version="1.0" encoding="UTF-8"?>
<!-- Generator: Adobe Illustrator 23.0.2, SVG Export Plug-In . SVG Version: 6.00 Build 0)  -->
<svg xmlns="http://www.w3.org/2000/svg" xmlns:xlink="http://www.w3.org/1999/xlink" id="Layer_1" x="0px" y="0px" viewBox="0 0 23 23" style="enable-background:new 0 0 23 23;" xml:space="preserve">
<style type="text/css">
	.st0{fill:#138F0C;}
</style>
<g>
	<g transform="translate(-1057.000000, -34.000000)">
		<g transform="translate(733.000000, 27.000000)">
			<g transform="translate(324.000000, 7.000000)">
				<path class="st0" d="M11.5,0C5.2,0,0,5.2,0,11.5C0,17.8,5.2,23,11.5,23C17.8,23,23,17.8,23,11.5C23,5.2,17.8,0,11.5,0z       M11.5,1.3c1.1,0,2.2,0.2,3.2,0.5c-0.2,0.3-0.3,0.6-0.3,1.1c0,0.7,0.3,1.4,0.6,2c0.3,0.5,0.5,1,0.5,1.4c0,0.2-0.1,0.3-0.3,0.4      c-0.4,0.1-1.1,0.1-1.5,0.1c-1.1,0-2.4,0-3.7,1.3C9.9,8.4,9.8,8.4,9.1,8.1C8.5,7.8,7.5,7.3,6.6,8.2c-0.5,0.5-0.7,1.3-0.6,2      C5.4,10,4.5,9.9,4.4,9.6c-0.1-0.1-0.1-0.7,1-2.5c0.4-0.7,0.9-1.7,0.5-2.5C5.6,4.2,5.2,4,4.8,3.9C6.6,2.3,8.9,1.3,11.5,1.3z       M11.5,21.7c-5.6,0-10.2-4.6-10.2-10.2c0-2.4,0.8-4.6,2.3-6.4c0.8,0,1,0.1,1,0.1c0,0,0,0.3-0.4,1.1c-1.1,1.8-1.4,2.9-1.1,3.7      c0.4,1.1,1.8,1.1,2.6,1.5c0.5,0.2,2.8,1.3,3,1.7v1.1c0,0.8,0.8,1.3,1.4,1.7c0.3,0.1,0.8,0.5,0.8,0.6      C11,19.3,11.2,20.8,11.5,21.7C11.6,21.7,11.5,21.7,11.5,21.7z M13.3,20.9c0,0.1-0.1,0.4-0.3,0.5c-0.2-0.2-0.7-1.2-0.7-4.8      c0-0.9-0.8-1.4-1.5-1.8c-0.2-0.1-0.7-0.4-0.8-0.5v-1.1c0-0.2,0-0.3-0.1-0.5c1.1-0.1,1.7-0.5,2.1-0.8c0.3-0.2,0.4-0.3,0.8-0.3      c0,0,0,0,0,0c0.1,0,0.2,0.3,0.3,0.4c0.8,1.3,1.5,1.7,3,2.1c0.2,0,0.5,0.1,0.6,0.2c0,0,0,0,0,0.1c0,1.4-1.1,2.4-2,3.3      c-0.8,0.7-1.4,1.3-1.4,2.1C13.3,19.9,13.3,20.9,13.3,20.9z M14.6,21.2c0-0.1,0-0.2,0-0.3c0-0.1,0-1.1,0-1.1c0,0,0-0.1,0.2-0.3      c0.2-0.2,0.5-0.5,0.8-0.8c1-1,2.4-2.3,2.4-4.3c0-0.7-0.3-1-0.6-1.2c-0.3-0.2-0.6-0.3-1-0.3c-1.1-0.2-1.5-0.5-2.1-1.4      c-0.3-0.5-0.7-1.1-1.5-1.1c-0.8,0-1.2,0.3-1.5,0.6c-0.4,0.3-0.8,0.6-1.9,0.6c-1.1,0-1.7-0.6-1.9-1.2c-0.1-0.2-0.2-0.7,0.1-1.1      C7.8,9,7.9,9,8.5,9.3c0.6,0.3,1.6,0.8,2.5-0.1c0.9-0.9,1.7-0.9,2.8-0.9c0.6,0,1.4,0,2-0.2c0.8-0.3,1.2-0.8,1.2-1.6      c0-0.7-0.3-1.4-0.6-2c-0.3-0.5-0.5-1-0.5-1.4c0-0.3,0.1-0.5,0.4-0.5c3.3,1.7,5.5,5.1,5.5,9C21.7,16,18.7,19.9,14.6,21.2z"></path>
			</g>
		</g>
	</g>
</g>
</svg>
