<?xml version="1.0" encoding="UTF-8"?>
<svg xmlns="http://www.w3.org/2000/svg" xmlns:xlink="http://www.w3.org/1999/xlink" width="20px" height="23px" viewBox="0 0 20 23">
  <g stroke="none" stroke-width="1" fill="none" fill-rule="evenodd">
    <g transform="translate(-957.000000, -34.000000)" fill="#051C2C" fill-rule="nonzero">
      <g transform="translate(733.000000, 27.000000)">
        <g transform="translate(224.000000, 7.000000)">
          <g>
            <path d="M9.92087725,12.5454545 C9.94485384,12.5454545 9.96883043,12.5454545 9.99760234,12.5454545 C10.007193,12.5454545 10.0167836,12.5454545 10.0263742,12.5454545 C10.0407602,12.5454545 10.0599415,12.5454545 10.0743274,12.5454545 C11.4793556,12.5213472 12.615846,12.0247362 13.4550266,11.0749074 C15.301224,8.98239117 14.9943237,5.39522046 14.9607565,5.05289637 C14.8408735,2.48305499 13.6324534,1.25358116 12.6350272,0.679826707 C11.8917529,0.250716232 11.0238004,0.019285864 10.0551462,0 L10.0215789,0 C10.0167836,0 10.007193,0 10.0023977,0 L9.97362575,0 C9.44134545,0 8.39596613,0.0867863881 7.39374467,0.660540843 C6.3867279,1.2342953 5.15912649,2.46376913 5.03924354,5.05289637 C5.00567631,5.39522046 4.69877596,8.98239117 6.54497339,11.0749074 C7.37935872,12.0247362 8.51584908,12.5213472 9.92087725,12.5454545 Z M6.31959344,5.17343302 C6.31959344,5.15896863 6.32438876,5.14450423 6.32438876,5.1348613 C6.48263426,1.67787017 8.92345111,1.30661729 9.96883043,1.30661729 L9.98801171,1.30661729 C9.99760234,1.30661729 10.0119883,1.30661729 10.0263742,1.30661729 C11.3211101,1.33554608 13.5221611,1.86590734 13.6708159,5.1348613 C13.6708159,5.14932569 13.6708159,5.16379009 13.6756112,5.17343302 C13.6804066,5.20718329 14.0160788,8.48578017 12.4911677,10.211865 C11.8869576,10.8965132 11.0813442,11.2340158 10.0215789,11.2436587 C10.0119883,11.2436587 10.007193,11.2436587 9.99760234,11.2436587 C9.98801171,11.2436587 9.98321639,11.2436587 9.97362575,11.2436587 C8.91865579,11.2340158 8.10824705,10.8965132 7.5088323,10.211865 C5.9887165,8.4954231 6.31479813,5.20236182 6.31959344,5.17343302 Z"></path>
            <path d="M19.9986364,18.358332 C19.9986364,18.3536576 19.9986364,18.3489832 19.9986364,18.3443088 C19.9986364,18.3069137 19.9937673,18.2695186 19.9937673,18.2274491 C19.9645528,17.3019201 19.9012548,15.1376782 17.7880741,14.4458686 C17.7734669,14.4411942 17.7539905,14.4365199 17.7393833,14.4318455 C15.5434283,13.8942908 13.7175233,12.6789497 13.698047,12.6649265 C13.4010331,12.4639278 12.9920304,12.5340436 12.78266,12.8191814 C12.5732895,13.1043191 12.6463257,13.4969677 12.9433396,13.6979664 C13.026114,13.7540591 14.9640078,15.0488648 17.3888096,15.6471865 C18.5233052,16.0351608 18.6499012,17.1990836 18.6839848,18.2648442 C18.6839848,18.3069137 18.6839848,18.3443088 18.6888539,18.3817039 C18.693723,18.8023989 18.6645085,19.452139 18.5866032,19.8260901 C17.7978123,20.2561338 14.7059465,21.7425894 10.0024153,21.7425894 C5.31836046,21.7425894 2.20701839,20.2514594 1.41335837,19.8214157 C1.33545309,19.4474646 1.30136953,18.7977245 1.31110769,18.3770296 C1.31110769,18.3396344 1.31597677,18.3022393 1.31597677,18.2601698 C1.35006033,17.1944092 1.47665641,16.0304864 2.61115203,15.6425122 C5.03595382,15.0441904 6.97384763,13.7447103 7.05662198,13.6932921 C7.35363586,13.4922933 7.42667206,13.0996447 7.21730162,12.814507 C7.00793119,12.5293693 6.59892847,12.4592534 6.3019146,12.6602521 C6.28243828,12.6742753 4.46627147,13.8896164 2.26057827,14.4271711 C2.24110195,14.4318455 2.22649471,14.4365199 2.21188747,14.4411942 C0.0987067939,15.1376782 0.0354087551,17.3019201 0.00619427561,18.2227747 C0.00619427561,18.2648442 0.00619427561,18.3022393 0.0013251957,18.3396344 C0.0013251957,18.3443088 0.0013251957,18.3489832 0.0013251957,18.3536576 C-0.00354388421,18.5967258 -0.00841296412,19.8447876 0.249648271,20.4711557 C0.29833907,20.5926898 0.385982509,20.6955264 0.502840426,20.7656422 C0.648912824,20.85913 4.14978128,23 10.0072844,23 C15.8647875,23 19.365656,20.8544556 19.5117284,20.7656422 C19.6237172,20.6955264 19.7162298,20.5926898 19.7649205,20.4711557 C20.0083745,19.849462 20.0035055,18.6014002 19.9986364,18.358332 Z"></path>
          </g>
        </g>
      </g>
    </g>
  </g>
</svg>
