<?xml version="1.0" encoding="UTF-8"?>
<!-- Generator: Adobe Illustrator 23.0.2, SVG Export Plug-In . SVG Version: 6.00 Build 0)  -->
<svg xmlns="http://www.w3.org/2000/svg" xmlns:xlink="http://www.w3.org/1999/xlink" id="Layer_1" x="0px" y="0px" viewBox="0 0 71 71" style="enable-background:new 0 0 71 71;" xml:space="preserve">
<style type="text/css">
	.st0{fill:#138F0C;}
</style>
<g>
	<g transform="translate(-547.000000, -5777.000000)">
		<g transform="translate(547.000000, 5777.000000)">
			<path class="st0" d="M56.4,43.9c-1.5-1.5-3.2-2.3-5.1-2.3c-1.9,0-3.6,0.8-5.2,2.3l-4.8,4.7c-0.4-0.2-0.8-0.4-1.2-0.6     c-0.5-0.3-1.1-0.5-1.5-0.8c-4.5-2.8-8.5-6.5-12.4-11.3c-1.9-2.4-3.2-4.4-4.1-6.4c1.2-1.1,2.4-2.3,3.5-3.4     c0.4-0.4,0.8-0.9,1.3-1.3c3.2-3.2,3.2-7.2,0-10.4l-4.1-4.1C22.4,10,22,9.5,21.5,9c-0.9-0.9-1.9-1.9-2.8-2.8     C17.2,4.8,15.5,4,13.6,4S10,4.8,8.5,6.2c0,0,0,0,0,0l-5.1,5.1c-1.9,1.9-3,4.3-3.3,7C-0.3,22.7,1,26.8,2,29.5     c2.4,6.6,6.1,12.6,11.5,19.2c6.6,7.8,14.5,14,23.6,18.4c3.5,1.6,8.1,3.6,13.3,3.9c0.3,0,0.6,0,0.9,0c3.5,0,6.4-1.2,8.7-3.7     c0,0,0,0,0.1-0.1c0.8-0.9,1.7-1.8,2.6-2.7c0.6-0.6,1.3-1.3,2-1.9c1.5-1.5,2.3-3.3,2.3-5.2c0-1.9-0.8-3.6-2.3-5.1L56.4,43.9z      M61.8,59.7C61.8,59.7,61.8,59.8,61.8,59.7c-0.6,0.6-1.2,1.2-1.8,1.8c-1,0.9-2,1.9-2.9,3c-1.5,1.6-3.3,2.4-5.7,2.4     c-0.2,0-0.5,0-0.7,0c-4.5-0.3-8.6-2-11.8-3.5c-8.5-4.1-16-10-22.3-17.4c-5.1-6.2-8.6-11.9-10.9-18c-1.4-3.7-1.9-6.6-1.7-9.4     c0.2-1.8,0.8-3.2,2.1-4.5l5.1-5.1c0.7-0.7,1.5-1.1,2.3-1.1c0.9,0,1.7,0.6,2.2,1.1c0,0,0,0,0,0c0.9,0.9,1.8,1.7,2.7,2.7     c0.5,0.5,0.9,1,1.4,1.5l4.1,4.1c1.6,1.6,1.6,3.1,0,4.7c-0.4,0.4-0.9,0.9-1.3,1.3c-1.3,1.3-2.5,2.5-3.8,3.7c0,0-0.1,0-0.1,0.1     c-1.3,1.3-1.1,2.6-0.8,3.4c0,0,0,0.1,0,0.1c1.1,2.6,2.6,5,4.9,7.9l0,0c4.2,5.1,8.5,9.1,13.4,12.1c0.6,0.4,1.3,0.7,1.9,1     c0.5,0.3,1.1,0.5,1.5,0.8c0.1,0,0.1,0.1,0.2,0.1c0.5,0.3,1,0.4,1.5,0.4c1.3,0,2-0.8,2.3-1l5.2-5.1c0.5-0.5,1.3-1.1,2.3-1.1     c0.9,0,1.7,0.6,2.2,1.1c0,0,0,0,0,0l8.3,8.3C63.3,56.6,63.3,58.2,61.8,59.7z"></path>
			<path class="st0" d="M38.6,16.9c3.9,0.6,7.4,2.5,10.1,5.3s4.6,6.3,5.3,10.1c0.2,1,1,1.6,2,1.6c0.1,0,0.2,0,0.3,0     c1.1-0.2,1.8-1.2,1.6-2.3c-0.8-4.7-3-8.9-6.4-12.3C48.2,16,44,13.8,39.3,13c-1.1-0.2-2.1,0.5-2.3,1.6S37.5,16.8,38.6,16.9z"></path>
			<path class="st0" d="M71,30.7C69.7,23,66,16.1,60.5,10.5S48,1.3,40.3,0c-1.1-0.2-2.1,0.5-2.3,1.6c-0.2,1.1,0.5,2.1,1.6,2.3     c6.8,1.2,13.1,4.4,18.1,9.4c5,5,8.2,11.2,9.4,18.1c0.2,1,1,1.6,2,1.6c0.1,0,0.2,0,0.3,0C70.4,32.8,71.2,31.8,71,30.7z"></path>
		</g>
	</g>
</g>
</svg>
