<?xml version="1.0" encoding="UTF-8"?>
<!-- Generator: Adobe Illustrator 23.0.2, SVG Export Plug-In . SVG Version: 6.00 Build 0)  -->
<svg xmlns="http://www.w3.org/2000/svg" xmlns:xlink="http://www.w3.org/1999/xlink" id="Layer_1" x="0px" y="0px" viewBox="0 0 512 512" style="enable-background:new 0 0 512 512;" xml:space="preserve">
<style type="text/css">
	.st0{fill:#138F0C;}
</style>
<path class="st0" d="M437,75C388.7,26.6,324.4,0,256,0S123.3,26.6,75,75S0,187.6,0,256s26.6,132.7,75,181s112.6,75,181,75  s132.7-26.6,181-75s75-112.6,75-181S485.4,123.3,437,75z M482,256c0,25.3-4.2,49.7-11.9,72.4l-83.5-34.6c3.5-12,5.4-24.7,5.4-37.9  s-1.9-25.8-5.4-37.9l83.5-34.6C477.8,206.3,482,230.7,482,256z M458.6,155.9l-83.4,34.6c-12.4-22.5-31-41.1-53.5-53.5l34.6-83.4  C400.5,75.4,436.6,111.5,458.6,155.9z M256,362c-58.4,0-106-47.6-106-106s47.6-106,106-106s106,47.6,106,106S314.4,362,256,362z   M328.4,41.9l-34.6,83.5c-12-3.5-24.7-5.4-37.9-5.4s-25.8,1.9-37.9,5.4l-34.6-83.5C206.3,34.2,230.7,30,256,30  S305.7,34.2,328.4,41.9z M155.9,53.4l34.6,83.4c-22.5,12.4-41.1,31-53.5,53.5l-83.4-34.6C75.4,111.5,111.5,75.4,155.9,53.4z M30,256  c0-25.3,4.2-49.7,11.9-72.4l83.5,34.6c-3.5,12-5.4,24.7-5.4,37.9s1.9,25.8,5.4,37.9l-83.5,34.6C34.2,305.7,30,281.3,30,256z   M53.4,356.1l83.4-34.6c12.4,22.5,31,41.1,53.5,53.5l-34.6,83.4C111.5,436.6,75.4,400.5,53.4,356.1z M183.6,470.1l34.6-83.5  c12,3.5,24.7,5.4,37.9,5.4s25.8-1.9,37.9-5.4l34.6,83.5c-22.8,7.7-47.1,11.9-72.4,11.9S206.3,477.8,183.6,470.1z M356.1,458.6  l-34.6-83.4c22.5-12.4,41.1-31,53.5-53.5l83.4,34.6C436.6,400.5,400.5,436.6,356.1,458.6z"></path>
</svg>
