<?xml version="1.0" encoding="UTF-8"?>
<!-- Generator: Adobe Illustrator 23.0.1, SVG Export Plug-In . SVG Version: 6.00 Build 0)  -->
<svg xmlns="http://www.w3.org/2000/svg" xmlns:xlink="http://www.w3.org/1999/xlink" id="Layer_1" x="0px" y="0px" viewBox="0 0 440.3 86.6" style="enable-background:new 0 0 440.3 86.6;" xml:space="preserve">
<style type="text/css">
	.st0{fill:#051C2C;}
	.st1{fill:#FDD756;}
</style>
<title>Asset 6</title>
<path class="st0" d="M104,40c-0.4,3.8-1.4,7.4-3.1,10.8c-1.3,2.8-3.4,5.2-6,7c-2.4,1.5-5.2,2.3-8,2.2c-3.2,0-6.2-1.5-8.2-4  l-3.5,18.1H63.5l9.3-53.5h10.8l-0.6,3.7c2.2-2.8,5.6-4.4,9.2-4.3c3.4-0.1,6.6,1.4,8.7,4c2.3,3.1,3.5,6.9,3.4,10.8  C104.3,36.6,104.2,38.3,104,40z M92.6,35.2c-0.1-3.9-1.4-5.9-4-6c-2.4-0.1-4.8,1-6.2,3l-2.8,15.3c0.7,2.1,2.7,3.5,4.9,3.2  c4.2,0,6.7-3.5,7.7-10.8C92.5,37.8,92.6,36.2,92.6,35.2z"></path>
<path class="st0" d="M128.7,20c3.2,0,6.3,0.9,9,2.6c2.5,1.7,4.5,4.2,5.6,7c1.2,3.2,1.6,6.6,1.3,10v0.8c-0.4,5.4-2.8,10.5-6.6,14.4  c-3.7,3.6-8.7,5.5-13.9,5.3c-3.1,0-6.2-0.9-8.9-2.6c-2.5-1.7-4.5-4.2-5.6-7c-1.2-3.2-1.7-6.6-1.3-9.9c0.3-5.7,2.6-11,6.5-15.1  C118.4,21.7,123.5,19.7,128.7,20z M119.9,40.6v2.1c-0.4,5.3,1.3,8,4.8,8.1c4.7,0.1,7.4-3.6,8-11.2l0.1-3.2c0.1-1.8-0.3-3.6-1.2-5.1  c-0.8-1.3-2.2-2-3.7-2c-2.1-0.1-4.1,0.9-5.4,2.7C121,34.5,120.1,37.5,119.9,40.6z"></path>
<path class="st0" d="M168.1,48.2c0.3-1.6-0.9-2.7-3.6-3.5l-2.5-0.6c-3.4-0.7-6.5-2.3-9.1-4.7c-1.9-1.8-2.9-4.4-2.7-7  c0.1-3.6,1.9-7,5-9c3.4-2.4,7.5-3.6,11.7-3.4c4-0.1,7.8,1.2,11,3.6c2.8,2.2,4.4,5.6,4.3,9.1h-11.7c0-3-1.2-4.7-4-4.7  c-1.2,0-2.3,0.4-3.3,1.1c-1,0.6-1.6,1.7-1.8,2.8c-0.4,1.9,1.3,3.2,5.1,4c2.7,0.6,5.2,1.5,7.7,2.7c1.7,0.9,3.1,2.2,4.1,3.8  c1,1.7,1.4,3.6,1.3,5.5c-0.1,2.3-0.9,4.5-2.3,6.2c-1.6,2-3.8,3.5-6.2,4.5c-2.8,1.1-5.9,1.6-9,1.5c-2.7,0-5.4-0.6-7.8-1.8  c-2.2-1-4.2-2.6-5.6-4.7c-1.4-2-2.1-4.3-2.1-6.8h10.9c-0.3,2.5,1.4,4.7,3.9,5.1c0.4,0.1,0.9,0.1,1.3,0c1.3,0,2.6-0.3,3.7-1  C167.2,50.4,167.9,49.4,168.1,48.2z"></path>
<path class="st0" d="M195.5,59.3h-11.7l6.6-38.6h11.7L195.5,59.3z M191.4,10.9c-0.1-1.7,0.6-3.2,1.8-4.3c1.3-1.2,2.9-1.8,4.7-1.8  c1.7-0.1,3.4,0.5,4.7,1.6c1.2,1,1.9,2.5,1.9,4.1c0.1,1.7-0.6,3.3-1.8,4.4c-1.3,1.2-3,1.8-4.7,1.7c-1.7,0-3.3-0.5-4.6-1.5  C192.2,14.1,191.5,12.5,191.4,10.9z"></path>
<path class="st0" d="M225,11.1l-1.7,9.6h6.2l-1.4,8.3h-6.2l-3,17.9c-0.2,0.9-0.1,1.9,0.2,2.7c0.3,0.6,1.1,1,2.3,1c1,0,2-0.1,3.1-0.2  l-0.8,8.7c-2,0.7-4.2,1-6.3,0.9c-3.1,0.2-6.1-1-8.2-3.2c-1.9-2.4-2.7-5.5-2.2-8.5l3.1-19.2h-4.7l1.4-8.3h4.7l1.7-9.7H225z"></path>
<path class="st0" d="M240.1,59.3h-11.8l6.7-38.6h11.7L240.1,59.3z M236,10.9c-0.1-1.7,0.6-3.3,1.8-4.3c1.3-1.2,2.9-1.8,4.7-1.8  c1.7-0.1,3.4,0.5,4.7,1.6c1.2,1,1.9,2.5,1.9,4.1c0.1,1.7-0.6,3.3-1.8,4.4c-1.3,1.2-2.9,1.8-4.7,1.7c-1.7,0.1-3.4-0.5-4.7-1.5  C236.7,14,236,12.5,236,10.9z"></path>
<path class="st0" d="M265,44.9l9.7-24.2h12.7l-18.3,38.6h-12l-6.2-38.6H263L265,44.9z"></path>
<path class="st0" d="M303.7,60.1c-3.3,0.1-6.5-0.8-9.3-2.5c-2.7-1.6-4.8-3.9-6.1-6.7c-1.4-3-2-6.2-1.6-9.5v-1  c0.3-5.7,2.7-11,6.6-15.1c3.7-3.7,8.7-5.6,13.9-5.3c3,0,6,0.8,8.5,2.5c2.4,1.7,4.2,4,5.2,6.8c1.1,3.1,1.5,6.4,1.1,9.7l-0.7,4.9h-23  c0,1.8,0.6,3.5,1.7,4.9c1.2,1.3,2.9,2,4.7,2c3.6,0.2,7.1-1.2,9.5-3.9l4.9,6.5c-1.6,2.1-3.7,3.8-6.1,4.9c-2.7,1.2-5.6,1.8-8.6,1.8  L303.7,60.1z M306.7,29.2c-1.6-0.1-3.2,0.5-4.3,1.6c-1.5,1.5-2.6,3.4-3.2,5.5h11.7l0.2-1c0.1-0.8,0.1-1.6,0-2.3  C310.8,30.7,308.9,29.1,306.7,29.2z"></path>
<path class="st1" d="M349.8,46.7c0.5-2.3-0.8-4.3-3.9-5.6l-5.3-2.2c-7.4-3.3-10.9-7.8-10.5-13.6c0.1-2.6,1.1-5,2.7-7  c1.8-2.1,4.2-3.8,6.8-4.7c3-1.2,6.3-1.8,9.6-1.8c4.1-0.1,8.2,1.4,11.3,4.1c2.9,2.7,4.4,6.6,4.2,10.5h-10.9c0.1-1.5-0.3-3.1-1.1-4.3  c-1-1.2-2.5-1.8-4.1-1.7c-1.7-0.1-3.4,0.4-4.9,1.3c-1.3,0.8-2.2,2.1-2.5,3.6c-0.4,2.2,1.2,3.9,4.7,5.3c2.7,1,5.3,2.1,7.8,3.5  c4.7,2.3,7.5,7.2,7.2,12.4c-0.1,2.5-1,5-2.6,7c-1.7,2.1-4,3.7-6.5,4.7c-3,1.2-6.2,1.7-9.3,1.6c-2.4,0-4.8-0.4-7-1.2  c-2.1-0.7-3.9-1.8-5.5-3.3c-3.2-2.9-4.8-7.1-4.5-11.4h11c-0.3,1.9,0.2,3.9,1.4,5.4c1.4,1.4,3.4,2,5.3,1.8c1.7,0.1,3.3-0.4,4.7-1.3  C348.7,49.2,349.5,48,349.8,46.7z"></path>
<path class="st1" d="M390.1,46.7c0.5-2.3-0.8-4.3-3.9-5.6l-5.3-2.2c-7.4-3.3-10.9-7.9-10.5-13.6c0.1-2.6,1.1-5,2.7-7  c1.8-2.1,4.2-3.7,6.8-4.7c3-1.2,6.3-1.8,9.6-1.8c4.1-0.1,8.1,1.4,11.2,4.1c2.9,2.7,4.4,6.6,4.2,10.5h-10.9c0.1-1.5-0.3-3.1-1.1-4.3  c-1-1.2-2.5-1.8-4.1-1.7c-1.7-0.1-3.4,0.4-4.9,1.3c-1.3,0.8-2.2,2.1-2.5,3.6c-0.4,2.2,1.2,3.9,4.7,5.3c2.7,1,5.3,2.1,7.9,3.5  c6.5,3.2,9.1,11,6,17.4c-0.4,0.7-0.8,1.4-1.3,2.1c-1.7,2.1-4,3.7-6.5,4.7c-3,1.2-6.2,1.7-9.3,1.6c-2.4,0-4.8-0.4-7-1.2  c-2.1-0.7-4-1.8-5.6-3.3c-3.1-2.9-4.8-7.1-4.5-11.4h11c-0.3,1.9,0.2,3.9,1.4,5.4c1.4,1.4,3.4,2,5.3,1.8c1.7,0.1,3.3-0.4,4.7-1.3  C389.1,49.3,389.9,48,390.1,46.7z"></path>
<path class="st1" d="M417.2,50.7h19.1l-1.5,8.7h-29.9l8.1-46.7h11L417.2,50.7z"></path>
<polygon class="st1" points="33.9,39.3 33.9,26.3 25.9,26.3 25.9,39.3 12.9,39.3 12.9,47.3 25.9,47.3 25.9,60.3 33.9,60.3   33.9,47.3 46.9,47.3 46.9,39.3 "></polygon>
<path class="st1" d="M29.9,18.5c-13.7,0-24.8,11.1-24.8,24.8S16.2,68,29.9,68S54.6,57,54.6,43.3l0,0C54.6,29.6,43.5,18.6,29.9,18.5z   M29.9,65.3C17.8,65.2,8,55.4,8.1,43.3s9.9-21.8,22-21.8c12,0.1,21.7,9.8,21.8,21.8c0,12.1-9.8,21.9-21.9,21.9c0,0-0.1,0-0.1,0V65.3  z"></path>
<g>
	<path d="M284.2,69.8h4.5c2.3,0,2.9,1.4,2.4,3.5c-0.3,1.3-1.1,3.5-4,3.5h-1.8l-1,4.8h-2.5L284.2,69.8z M285.6,75h1.4   c0.7,0,1.4-0.8,1.6-1.6c0.2-1,0.1-1.8-1-1.8h-1.2L285.6,75z"></path>
	<path d="M291.9,75.7c0.7-3.1,1.3-6.1,5.4-6.1c4.1,0,3.4,3,2.8,6.1c-0.7,3.1-1.3,6.1-5.4,6.1S291.3,78.8,291.9,75.7z M297.6,75.7   c0.6-3,0.7-4.3-0.6-4.3s-1.9,1.3-2.5,4.3c-0.6,3-0.7,4.3,0.6,4.3C296.5,80,296.9,78.7,297.6,75.7z"></path>
	<path d="M302.3,69.8h2.5l-0.2,8.3h0l3.6-8.3h2.9l0,8.3h0l3.2-8.3h2.4l-5.1,11.8H309l0-8.6h0l-3.9,8.6h-2.7L302.3,69.8z"></path>
	<path d="M315.3,81.6l2.5-11.8h6.5l-0.4,1.8h-4l-0.6,2.9h3.7l-0.4,1.8h-3.7l-0.7,3.5h4.1l-0.4,1.8H315.3z"></path>
	<path d="M325.9,81.6h-2.5l2.5-11.8h4.6c1.7,0,2.5,1.1,2.1,3.1c-0.3,1.5-1.2,2.6-2.8,2.9l0,0c0.5,0.1,2.1,0.2,1.6,2.3   c-0.2,0.8-0.6,3-0.5,3.5h-2.4c-0.2-0.7,0.1-1.5,0.2-2.3c0.3-1.4,0.7-2.6-1.2-2.6H327L325.9,81.6z M327.4,74.9h1.1   c1,0,1.5-1,1.6-1.7c0.2-1.1-0.1-1.6-0.9-1.6h-1.1L327.4,74.9z"></path>
	<path d="M332.6,81.6l2.5-11.8h6.5l-0.4,1.8h-4l-0.6,2.9h3.7l-0.4,1.8h-3.7l-0.7,3.5h4.1l-0.4,1.8H332.6z"></path>
	<path d="M343.4,69.8h4.1c3.2,0,3.4,2.2,2.6,5.8c-0.4,1.8-1,6-5.2,6h-4L343.4,69.8z M343.7,79.8h1.2c1.5,0,2-1.1,2.7-4.1   c0.5-2.2,0.9-4.1-0.8-4.1h-1.3L343.7,79.8z"></path>
	<path d="M354.5,81.6l2.5-11.8h4.4c1.9,0,3.3,0.5,2.8,3.1c-0.3,1.4-1.2,2.3-2.6,2.6l0,0c1.7,0.2,1.9,1.4,1.6,3   c-0.6,3-3.3,3.1-4.3,3.1H354.5z M357.3,79.8h1.4c0.5,0,1.7,0,2.1-1.7c0.2-1,0-1.7-1.3-1.7H358L357.3,79.8z M358.4,74.6h1.7   c0.5,0,1.4-0.4,1.6-1.5c0.2-0.9-0.3-1.5-1.1-1.5h-1.5L358.4,74.6z"></path>
	<path d="M367.5,77.5l-1.4-7.7h2.7l0.7,5l2.9-5h2.5l-5,7.7l-0.9,4.1h-2.5L367.5,77.5z"></path>
	<path d="M380.3,81.8c-3.1,0-3.3-1.8-2.7-3.8h2.5c-0.2,1.1-0.4,2.1,1,2.1c0.8,0,1.4-0.5,1.5-1.3c0.5-2.1-4.5-2.3-3.7-5.8   c0.4-1.9,1.6-3.3,4.6-3.3c2.4,0,3.4,1.1,2.7,3.6h-2.4c0.2-0.9,0.2-1.8-0.8-1.8c-0.8,0-1.4,0.4-1.5,1.3c-0.5,2.2,4.5,2,3.7,5.8   C384.5,81.4,382.2,81.8,380.3,81.8z"></path>
	<path d="M386.2,81.6l2.5-11.8h6.5l-0.4,1.8h-4l-0.6,2.9h3.7l-0.4,1.8h-3.7l-0.7,3.5h4.1l-0.4,1.8H386.2z"></path>
	<path d="M395.6,75.7c0.7-3.1,1.3-6.1,5.4-6.1c2.5,0,3.2,1.4,2.6,3.9h-2.4c0.3-1.6,0.2-2.2-0.6-2.2c-1.4,0-1.9,1.3-2.5,4.3   c-0.6,3-0.7,4.3,0.6,4.3c1.1,0,1.4-1.5,1.6-2.4h2.4c-0.7,3.2-2.2,4.2-4.5,4.2C394.3,81.8,394.9,78.8,395.6,75.7z"></path>
	<path d="M413.1,69.8l-0.4,2h-2.8l-2.1,9.9h-2.5l2.1-9.9h-2.8l0.4-2H413.1z"></path>
	<path d="M411.7,81.6l2.5-11.8h2.5l-2.5,11.8H411.7z"></path>
	<path d="M423.4,73.4c0.3-1.1,0.3-2.1-1-2.1c-1.5,0-2,2.1-2.5,4.4c-0.8,3.7-0.6,4.4,0.8,4.4c0.4,0,0.9-0.1,1.3-0.2l0.6-2.6h-1.3   l0.4-1.8h3.8l-1.3,6c-0.7,0.1-2.4,0.4-3.4,0.4c-4.2,0-4.3-1.7-3.3-6.2c0.6-3,1.4-6,5.5-6c2.4,0,3.6,1.4,3,3.8H423.4z"></path>
	<path d="M427.4,75.7c0.7-3.1,1.3-6.1,5.4-6.1c4.1,0,3.4,3,2.8,6.1c-0.7,3.1-1.3,6.1-5.4,6.1C426.1,81.8,426.7,78.8,427.4,75.7z    M433,75.7c0.6-3,0.7-4.3-0.6-4.3c-1.4,0-1.9,1.3-2.5,4.3c-0.6,3-0.7,4.3,0.6,4.3C431.9,80,432.4,78.7,433,75.7z"></path>
</g>
</svg>
